<svg width="421" height="355" viewBox="0 0 421 355" fill="none" xmlns="http://www.w3.org/2000/svg">
<path fill-rule="evenodd" clip-rule="evenodd" d="M157.253 268.035H67.7425C66.6727 268.035 65.672 267.622 64.9128 266.887C64.1882 266.154 63.7742 265.156 63.7742 264.117V166.811C63.7742 165.772 64.1882 164.777 64.9128 164.041C65.672 163.305 66.6727 162.893 67.7425 162.893H157.253V68.935C157.253 67.896 157.667 66.9013 158.392 66.1655C159.151 65.4297 160.152 65.0175 161.187 65.0175H259.773C260.843 65.0175 261.844 65.4297 262.568 66.1655C263.327 66.9013 263.742 67.896 263.742 68.935V162.893H353.252C354.288 162.893 355.288 163.305 356.048 164.041C356.807 164.777 357.221 165.772 357.221 166.811V264.117C357.221 265.156 356.807 266.154 356.048 266.887C355.288 267.622 354.288 268.035 353.252 268.035H263.742V350.789C263.742 351.828 263.327 352.822 262.568 353.558C261.844 354.294 260.843 354.706 259.773 354.706H161.187C160.152 354.706 159.151 354.294 158.392 353.558C157.667 352.822 157.253 351.828 157.253 350.789V268.035ZM208.91 157.252L153.078 262.472L207.53 225.934C208.392 225.365 208.91 224.418 208.91 223.406V157.252ZM212.085 157.252V223.406C212.085 224.418 212.602 225.365 213.43 225.934L267.882 262.472L212.085 157.252Z" fill="#D0D0D0"/>
<path fill-rule="evenodd" clip-rule="evenodd" d="M359.297 354.704L342.06 337.672C376.939 303.223 396.569 256.499 396.569 207.781C396.569 106.401 313.183 24.0908 210.492 24.0908C107.801 24.0908 24.4156 106.401 24.4156 207.781C24.4156 256.499 44.0045 303.223 78.9243 337.672L61.647 354.704C22.1848 315.739 0 262.889 0 207.781C0 93.1041 94.3362 0 210.492 0C326.648 0 420.944 93.1041 420.944 207.781C420.944 262.889 398.799 315.739 359.297 354.704Z" fill="#D0D0D0"/>
</svg>
