<svg width="69" height="49" viewBox="0 0 69 49" fill="none" xmlns="http://www.w3.org/2000/svg">
<g filter="url(#filter0_f_199_905)">
<path d="M14.9141 34L21.9141 41L28.9141 34M14.9141 15L21.9141 8L28.9141 15M31.4141 17.5L38.4141 24.5L31.4141 31.5M12.4141 31.5L5.41406 24.5L12.4141 17.5M43.9141 10.5L57.9141 24.5M24.4141 44L43.9141 24.5L24.4141 5L43.9141 5L63.4141 24.5L43.9141 44H24.4141Z" stroke="#383838" stroke-width="2"/>
</g>
<path d="M14.9141 34L21.9141 41L28.9141 34M14.9141 15L21.9141 8L28.9141 15M31.4141 17.5L38.4141 24.5L31.4141 31.5M12.4141 31.5L5.41406 24.5L12.4141 17.5M43.9141 10.5L57.9141 24.5M24.4141 44L43.9141 24.5L24.4141 5L43.9141 5L63.4141 24.5L43.9141 44H24.4141Z" stroke="#383838" stroke-width="2"/>
<defs>
<filter id="filter0_f_199_905" x="0" y="0" width="68.8281" height="49" filterUnits="userSpaceOnUse" color-interpolation-filters="sRGB">
<feFlood flood-opacity="0" result="BackgroundImageFix"/>
<feBlend mode="normal" in="SourceGraphic" in2="BackgroundImageFix" result="shape"/>
<feGaussianBlur stdDeviation="2" result="effect1_foregroundBlur_199_905"/>
</filter>
</defs>
</svg>
